<mxfile host="app.diagrams.net" modified="2022-01-30T09:32:26.156Z" agent="5.0 (Windows NT 10.0; Win64; x64) AppleWebKit/537.36 (KHTML, like Gecko) Chrome/97.0.4692.99 Safari/537.36" etag="SzsGlgIuIrhoBd2xX0jk" version="16.5.2" type="github">
  <diagram name="Page-1" id="13e1069c-82ec-6db2-03f1-153e76fe0fe0">
    <mxGraphModel dx="1185" dy="588" grid="1" gridSize="10" guides="1" tooltips="1" connect="1" arrows="1" fold="1" page="1" pageScale="1" pageWidth="1100" pageHeight="850" background="none" math="0" shadow="0">
      <root>
        <mxCell id="0" />
        <mxCell id="1" parent="0" />
        <mxCell id="7baba1c4bc27f4b0-2" value="&lt;pre style=&quot;font-family: consolas, monospace; font-size: 9.8pt;&quot;&gt;JsonClassUtils&lt;/pre&gt;" style="shape=umlLifeline;perimeter=lifelinePerimeter;whiteSpace=wrap;html=1;container=1;collapsible=0;recursiveResize=0;outlineConnect=0;rounded=1;shadow=0;comic=0;labelBackgroundColor=none;strokeWidth=1;fontFamily=Verdana;fontSize=12;align=center;fontColor=default;" parent="1" vertex="1">
          <mxGeometry x="240" y="80" width="110" height="580" as="geometry" />
        </mxCell>
        <mxCell id="ZBdKKf0h5QX2JQCzmkPa-4" value="&lt;pre style=&quot;font-family: consolas, monospace; font-size: 9.8pt;&quot;&gt;&lt;span style=&quot;font-weight: bold; font-style: italic;&quot;&gt;getAllClass&lt;/span&gt;&lt;/pre&gt;" style="text;whiteSpace=wrap;html=1;labelBackgroundColor=none;" vertex="1" parent="7baba1c4bc27f4b0-2">
          <mxGeometry x="30" y="250" width="100" height="60" as="geometry" />
        </mxCell>
        <mxCell id="7baba1c4bc27f4b0-3" value="&lt;pre style=&quot;font-family: consolas, monospace; font-size: 9.8pt;&quot;&gt;JsonHelperUtils&lt;/pre&gt;" style="shape=umlLifeline;perimeter=lifelinePerimeter;whiteSpace=wrap;html=1;container=1;collapsible=0;recursiveResize=0;outlineConnect=0;rounded=1;shadow=0;comic=0;labelBackgroundColor=none;strokeWidth=1;fontFamily=Verdana;fontSize=12;align=center;fontColor=default;" parent="1" vertex="1">
          <mxGeometry x="380" y="80" width="150" height="580" as="geometry" />
        </mxCell>
        <mxCell id="ZBdKKf0h5QX2JQCzmkPa-15" style="edgeStyle=orthogonalEdgeStyle;rounded=0;orthogonalLoop=1;jettySize=auto;html=1;labelBackgroundColor=none;fontColor=default;" edge="1" parent="7baba1c4bc27f4b0-3" source="ZBdKKf0h5QX2JQCzmkPa-9" target="ZBdKKf0h5QX2JQCzmkPa-14">
          <mxGeometry relative="1" as="geometry" />
        </mxCell>
        <mxCell id="ZBdKKf0h5QX2JQCzmkPa-9" value="&lt;pre style=&quot;font-family: consolas, monospace; font-size: 9.8pt;&quot;&gt;&lt;span style=&quot;font-weight: bold; font-style: italic;&quot;&gt;getHelper&lt;/span&gt;&lt;/pre&gt;" style="text;whiteSpace=wrap;html=1;fontColor=default;labelBackgroundColor=none;" vertex="1" parent="7baba1c4bc27f4b0-3">
          <mxGeometry x="30" y="50" width="90" height="60" as="geometry" />
        </mxCell>
        <mxCell id="ZBdKKf0h5QX2JQCzmkPa-12" value="&lt;pre style=&quot;font-family: consolas, monospace; font-size: 9.8pt;&quot;&gt;&lt;span style=&quot;font-weight: bold; font-style: italic;&quot;&gt;addAllImportClass&lt;/span&gt;&lt;/pre&gt;" style="text;whiteSpace=wrap;html=1;fontColor=default;labelBackgroundColor=none;" vertex="1" parent="7baba1c4bc27f4b0-3">
          <mxGeometry y="370" width="150" height="60" as="geometry" />
        </mxCell>
        <mxCell id="ZBdKKf0h5QX2JQCzmkPa-17" style="edgeStyle=orthogonalEdgeStyle;rounded=0;orthogonalLoop=1;jettySize=auto;html=1;labelBackgroundColor=none;fontColor=default;" edge="1" parent="7baba1c4bc27f4b0-3" source="ZBdKKf0h5QX2JQCzmkPa-14" target="ZBdKKf0h5QX2JQCzmkPa-16">
          <mxGeometry relative="1" as="geometry" />
        </mxCell>
        <mxCell id="ZBdKKf0h5QX2JQCzmkPa-14" value="&lt;pre style=&quot;font-family: consolas, monospace; font-size: 9.8pt;&quot;&gt;&lt;span style=&quot;font-weight: bold; font-style: italic;&quot;&gt;deleteHelper&lt;/span&gt;&lt;/pre&gt;" style="text;whiteSpace=wrap;html=1;fontColor=default;labelBackgroundColor=none;" vertex="1" parent="7baba1c4bc27f4b0-3">
          <mxGeometry x="20" y="140" width="110" height="60" as="geometry" />
        </mxCell>
        <mxCell id="ZBdKKf0h5QX2JQCzmkPa-18" style="edgeStyle=orthogonalEdgeStyle;rounded=0;orthogonalLoop=1;jettySize=auto;html=1;labelBackgroundColor=none;fontColor=default;" edge="1" parent="7baba1c4bc27f4b0-3" source="ZBdKKf0h5QX2JQCzmkPa-16" target="ZBdKKf0h5QX2JQCzmkPa-12">
          <mxGeometry relative="1" as="geometry" />
        </mxCell>
        <mxCell id="ZBdKKf0h5QX2JQCzmkPa-16" value="&lt;pre style=&quot;font-family: consolas, monospace; font-size: 9.8pt;&quot;&gt;&lt;span style=&quot;font-weight: bold; font-style: italic;&quot;&gt;generateHelper&lt;/span&gt;&lt;/pre&gt;" style="text;whiteSpace=wrap;html=1;fontColor=default;labelBackgroundColor=none;" vertex="1" parent="7baba1c4bc27f4b0-3">
          <mxGeometry x="10" y="250" width="130" height="60" as="geometry" />
        </mxCell>
        <mxCell id="7baba1c4bc27f4b0-4" value="&lt;pre style=&quot;font-family: consolas, monospace; font-size: 9.8pt;&quot;&gt;JsonCodeWriter&lt;/pre&gt;" style="shape=umlLifeline;perimeter=lifelinePerimeter;whiteSpace=wrap;html=1;container=1;collapsible=0;recursiveResize=0;outlineConnect=0;rounded=1;shadow=0;comic=0;labelBackgroundColor=none;strokeWidth=1;fontFamily=Verdana;fontSize=12;align=center;fontColor=default;" parent="1" vertex="1">
          <mxGeometry x="540" y="80" width="140" height="580" as="geometry" />
        </mxCell>
        <mxCell id="ZBdKKf0h5QX2JQCzmkPa-13" value="&lt;pre style=&quot;font-family: consolas, monospace; font-size: 9.8pt;&quot;&gt;&lt;span style=&quot;font-weight: bold; font-style: italic;&quot;&gt;writeJsonHelper&lt;/span&gt;&lt;/pre&gt;" style="text;whiteSpace=wrap;html=1;fontColor=default;labelBackgroundColor=none;" vertex="1" parent="7baba1c4bc27f4b0-4">
          <mxGeometry x="20" y="40" width="130" height="60" as="geometry" />
        </mxCell>
        <mxCell id="7baba1c4bc27f4b0-5" value=":Object" style="shape=umlLifeline;perimeter=lifelinePerimeter;whiteSpace=wrap;html=1;container=1;collapsible=0;recursiveResize=0;outlineConnect=0;rounded=1;shadow=0;comic=0;labelBackgroundColor=none;strokeWidth=1;fontFamily=Verdana;fontSize=12;align=center;fontColor=default;" parent="1" vertex="1">
          <mxGeometry x="680" y="80" width="100" height="580" as="geometry" />
        </mxCell>
        <mxCell id="7baba1c4bc27f4b0-6" value=":Object" style="shape=umlLifeline;perimeter=lifelinePerimeter;whiteSpace=wrap;html=1;container=1;collapsible=0;recursiveResize=0;outlineConnect=0;rounded=1;shadow=0;comic=0;labelBackgroundColor=none;strokeWidth=1;fontFamily=Verdana;fontSize=12;align=center;fontColor=default;" parent="1" vertex="1">
          <mxGeometry x="820" y="80" width="100" height="580" as="geometry" />
        </mxCell>
        <mxCell id="7baba1c4bc27f4b0-7" value=":Object" style="shape=umlLifeline;perimeter=lifelinePerimeter;whiteSpace=wrap;html=1;container=1;collapsible=0;recursiveResize=0;outlineConnect=0;rounded=1;shadow=0;comic=0;labelBackgroundColor=none;strokeWidth=1;fontFamily=Verdana;fontSize=12;align=center;fontColor=default;" parent="1" vertex="1">
          <mxGeometry x="960" y="80" width="100" height="580" as="geometry" />
        </mxCell>
        <mxCell id="7baba1c4bc27f4b0-8" value="&lt;pre style=&quot;font-family: consolas, monospace; font-size: 9.8pt;&quot;&gt;JsonGen&lt;/pre&gt;" style="shape=umlLifeline;perimeter=lifelinePerimeter;whiteSpace=wrap;html=1;container=1;collapsible=0;recursiveResize=0;outlineConnect=0;rounded=1;shadow=0;comic=0;labelBackgroundColor=none;strokeWidth=1;fontFamily=Verdana;fontSize=12;align=center;fontColor=default;" parent="1" vertex="1">
          <mxGeometry x="100" y="80" width="115" height="580" as="geometry" />
        </mxCell>
        <mxCell id="ZBdKKf0h5QX2JQCzmkPa-1" value="&lt;pre style=&quot;font-family: consolas, monospace; font-size: 9.8pt;&quot;&gt;&lt;span style=&quot;font-weight: bold; font-style: italic;&quot;&gt;run&lt;/span&gt;&lt;/pre&gt;" style="text;whiteSpace=wrap;html=1;labelBackgroundColor=none;" vertex="1" parent="7baba1c4bc27f4b0-8">
          <mxGeometry x="40" y="80" width="40" height="40" as="geometry" />
        </mxCell>
        <mxCell id="ZBdKKf0h5QX2JQCzmkPa-3" value="&lt;pre style=&quot;font-family: consolas, monospace; font-size: 9.8pt;&quot;&gt;&lt;span style=&quot;font-weight: bold; font-style: italic;&quot;&gt;codegen&lt;/span&gt;&lt;/pre&gt;" style="text;whiteSpace=wrap;html=1;labelBackgroundColor=none;" vertex="1" parent="7baba1c4bc27f4b0-8">
          <mxGeometry x="17.5" y="250" width="80" height="60" as="geometry" />
        </mxCell>
        <mxCell id="ZBdKKf0h5QX2JQCzmkPa-8" value="" style="edgeStyle=orthogonalEdgeStyle;rounded=0;orthogonalLoop=1;jettySize=auto;html=1;labelBackgroundColor=none;fontColor=default;" edge="1" parent="7baba1c4bc27f4b0-8" source="ZBdKKf0h5QX2JQCzmkPa-2" target="ZBdKKf0h5QX2JQCzmkPa-3">
          <mxGeometry relative="1" as="geometry" />
        </mxCell>
        <mxCell id="ZBdKKf0h5QX2JQCzmkPa-2" value="&lt;pre style=&quot;font-family: consolas, monospace; font-size: 9.8pt;&quot;&gt;&lt;span style=&quot;font-weight: bold; font-style: italic;&quot;&gt;getModules&lt;/span&gt;&lt;/pre&gt;" style="text;whiteSpace=wrap;html=1;labelBackgroundColor=none;" vertex="1" parent="7baba1c4bc27f4b0-8">
          <mxGeometry x="7.5" y="150" width="100" height="60" as="geometry" />
        </mxCell>
        <mxCell id="ZBdKKf0h5QX2JQCzmkPa-6" value="" style="edgeStyle=orthogonalEdgeStyle;rounded=0;orthogonalLoop=1;jettySize=auto;html=1;labelBackgroundColor=none;fontColor=default;" edge="1" parent="7baba1c4bc27f4b0-8" source="ZBdKKf0h5QX2JQCzmkPa-1" target="ZBdKKf0h5QX2JQCzmkPa-2">
          <mxGeometry relative="1" as="geometry" />
        </mxCell>
        <mxCell id="ZBdKKf0h5QX2JQCzmkPa-5" style="edgeStyle=orthogonalEdgeStyle;rounded=0;orthogonalLoop=1;jettySize=auto;html=1;entryX=0;entryY=0.5;entryDx=0;entryDy=0;labelBackgroundColor=none;fontColor=default;fillColor=#dae8fc;strokeColor=#6c8ebf;" edge="1" parent="1" source="ZBdKKf0h5QX2JQCzmkPa-3" target="ZBdKKf0h5QX2JQCzmkPa-4">
          <mxGeometry relative="1" as="geometry" />
        </mxCell>
        <mxCell id="ZBdKKf0h5QX2JQCzmkPa-10" value="" style="edgeStyle=orthogonalEdgeStyle;rounded=0;orthogonalLoop=1;jettySize=auto;html=1;labelBackgroundColor=none;fontColor=default;" edge="1" parent="1" source="ZBdKKf0h5QX2JQCzmkPa-4" target="ZBdKKf0h5QX2JQCzmkPa-9">
          <mxGeometry relative="1" as="geometry">
            <Array as="points">
              <mxPoint x="320" y="160" />
            </Array>
          </mxGeometry>
        </mxCell>
        <mxCell id="ZBdKKf0h5QX2JQCzmkPa-19" style="edgeStyle=orthogonalEdgeStyle;rounded=0;orthogonalLoop=1;jettySize=auto;html=1;labelBackgroundColor=none;fontColor=default;exitX=0.806;exitY=-0.036;exitDx=0;exitDy=0;exitPerimeter=0;" edge="1" parent="1" source="ZBdKKf0h5QX2JQCzmkPa-12" target="ZBdKKf0h5QX2JQCzmkPa-13">
          <mxGeometry relative="1" as="geometry">
            <Array as="points">
              <mxPoint x="540" y="448" />
              <mxPoint x="540" y="150" />
            </Array>
          </mxGeometry>
        </mxCell>
      </root>
    </mxGraphModel>
  </diagram>
</mxfile>
